<?xml version="1.0" encoding="UTF-8"?>
<svg width="223px" height="223px" viewBox="0 0 223 223" version="1.1" xmlns="http://www.w3.org/2000/svg" xmlns:xlink="http://www.w3.org/1999/xlink">
    <!-- Generator: Sketch 49 (51002) - http://www.bohemiancoding.com/sketch -->
    <title>one-team-logo</title>
    <desc>Created with Sketch.</desc>
    <defs>
        <linearGradient x1="14.6674127%" y1="0%" x2="87.6533635%" y2="100%" id="linearGradient-1">
            <stop stop-color="#FC5E3C" offset="0%"></stop>
            <stop stop-color="#F93E6E" offset="100%"></stop>
        </linearGradient>
        <linearGradient x1="24.0136317%" y1="1.21286869e-08%" x2="76.6407308%" y2="100%" id="linearGradient-2">
            <stop stop-color="#FF8300" offset="0%"></stop>
            <stop stop-color="#F60BC2" offset="100%"></stop>
        </linearGradient>
    </defs>
    <g id="Page-1" stroke="none" stroke-width="1" fill="none" fill-rule="evenodd">
        <path d="M169.130166,26.5401976 L215.266639,33.0242561 L208.771692,79.238209 L162.635218,72.7541504 L169.130166,26.5401976 Z M184.650529,59.0279359 C184.535945,59.7050226 184.197407,60.2701211 183.634904,60.7232484 C183.072401,61.1763757 182.452615,61.4029359 181.775529,61.4029359 C180.75469,61.4029359 179.900532,61.1347094 179.213029,60.5982484 C178.525525,60.0617874 178.280736,59.1373175 178.478654,57.8248109 L174.213029,57.8248109 L174.181779,57.9185609 C173.775527,60.2831561 174.309376,62.0279303 175.783341,63.1529359 C177.257307,64.2779415 179.08281,64.8404359 181.259904,64.8404359 C183.332831,64.8404359 185.075001,64.3404409 186.486466,63.3404359 C187.897932,62.3404309 188.749486,60.8925287 189.041154,58.9966859 C189.332822,57.0279261 188.989075,55.4576293 188.009904,54.2857484 C187.030732,53.1138676 185.489081,52.12169 183.384904,51.3091859 C181.801563,50.6216825 180.757302,50.020126 180.252091,49.5044984 C179.74688,48.9888708 179.572403,48.2414825 179.728654,47.2623109 C179.811988,46.6060576 180.129693,46.0461674 180.681779,45.5826234 C181.233865,45.1190794 181.848442,44.8873109 182.525529,44.8873109 C183.483867,44.8873109 184.21563,45.2180368 184.720841,45.8794984 C185.226052,46.5409601 185.40053,47.4081389 185.244279,48.4810609 L189.509904,48.4810609 L189.556779,48.3873109 C189.921364,46.2310501 189.486472,44.5331504 188.252091,43.2935609 C187.01771,42.0539714 185.285957,41.4341859 183.056779,41.4341859 C181.035935,41.4341859 179.306786,41.9576182 177.869279,43.0044984 C176.431772,44.0513786 175.577613,45.4810519 175.306779,47.2935609 C175.015111,49.1894037 175.41094,50.7232426 176.494279,51.8951234 C177.577618,53.0670043 179.259892,54.0748067 181.541154,54.9185609 C182.843244,55.543564 183.723443,56.1294957 184.181779,56.6763734 C184.640114,57.2232511 184.796363,58.0070975 184.650529,59.0279359 Z M203.494279,54.4654359 L204.009904,51.0279359 L197.056779,51.0279359 L197.931779,45.2154359 L206.228654,45.2154359 L206.744279,41.7623109 L194.041154,41.7623109 L190.634904,64.5123109 L203.369279,64.5123109 L203.884904,61.0748109 L195.556779,61.0748109 L196.541154,54.4654359 L203.494279,54.4654359 Z" id="Combined-Shape" fill="url(#linearGradient-1)"></path>
        <g id="one-team-logo" transform="translate(0.500000, 0.500000)" fill="url(#linearGradient-2)" fill-rule="nonzero">
            <path d="M7.70835709,188.842914 L188.95145,214.31497 L214.423506,33.0718772 L33.1804126,7.59982157 L7.70835709,188.842914 Z M27.4535363,0 L222.023327,27.3450008 L194.678326,221.914792 L0.108535417,194.569791 L27.4535363,0 Z M63.4916045,80.9080184 C67.7146697,80.9956338 71.2060933,79.571904 73.9659802,76.6367862 C76.7258672,73.7016683 78.5000536,69.605707 79.2885927,64.3487796 L80.1559813,58.4873348 C80.3487353,57.1731029 80.4275881,55.780038 80.3925419,54.3080982 C80.2523572,50.4004489 79.2141295,47.3208117 77.277828,45.0690943 C75.3415263,42.8173771 72.6736756,41.6564897 69.2741958,41.5863973 C66.5230705,41.533828 64.0523515,42.147127 61.8619651,43.4263127 C59.6715786,44.7054984 57.8404431,46.6592939 56.3685034,49.2877577 C54.8965637,51.9162213 53.9065239,54.930148 53.3983541,58.3296277 L52.4258275,64.6904782 C52.2505965,66.0397562 52.1980281,67.3714912 52.2681204,68.6857231 C52.4433514,72.4882339 53.5166246,75.4583534 55.4879724,77.5961706 C57.4593203,79.7339878 60.1271709,80.837926 63.4916045,80.9080184 Z M72.6123281,58.2244897 L71.6923704,64.7167626 C71.1842008,68.221381 70.2905364,70.7446684 69.0113507,72.2867004 C67.7321652,73.8287325 66.0937806,74.5646913 64.0961482,74.4945989 C61.2924534,74.3719372 59.8468201,72.4707103 59.7592046,68.7908611 C59.7066353,67.809568 59.7854881,66.4515488 59.9957652,64.7167626 L60.9157229,58.2770587 C61.4238926,54.702348 62.3219375,52.0783044 63.6098848,50.4048491 C64.897832,48.7313939 66.5931657,47.9384859 68.6959367,48.0261014 C71.429539,48.1312399 72.8401267,50.1376038 72.9277422,54.0452532 C72.9277422,55.0265463 72.8226053,56.4196112 72.6123281,58.2244897 Z M108.043842,80.3823282 L114.693822,42.1120874 L107.176454,42.1120874 L102.760657,67.5029203 L96.0581075,42.1120874 L88.6721613,42.1120874 L82.0484657,80.3823282 L89.592119,80.3823282 L94.0079161,55.01778 L100.684181,80.3823282 L108.043842,80.3823282 Z M136.352255,63.8230894 L137.456205,57.5936616 L125.759599,57.5936616 L127.33667,48.5517915 L141.083466,48.5517915 L142.2137,42.1120874 L120.896966,42.1120874 L114.27327,80.3823282 L135.616289,80.3823282 L136.746523,73.9689088 L122.920873,73.9689088 L124.681935,63.8230894 L136.352255,63.8230894 Z M90.0389556,176.977888 L92.4571301,161.1809 L79.6828602,161.1809 L78.6577645,167.01606 L83.9409502,167.01606 L82.6004404,174.060308 C80.9182236,174.989032 79.3937376,175.435864 78.0269364,175.400818 C76.5725197,175.365771 75.4466779,174.905798 74.6493774,174.020881 C73.8520767,173.135965 73.4096252,171.712235 73.3220097,169.749649 C73.2694404,168.558078 73.3570547,167.121206 73.5848548,165.43899 L74.636235,158.053044 L75.0305027,156.081705 C76.1695036,151.157717 78.5526083,148.765851 82.1798883,148.906036 C84.6331212,148.99365 85.9736176,150.404239 86.2014177,153.137841 L86.2802713,155.240601 L93.6136484,155.266885 C93.5786022,151.096391 92.6367502,147.946661 90.7880641,145.817606 C88.9393779,143.688551 86.1926745,142.588993 82.5478714,142.5189 C78.2722371,142.431285 74.802717,143.841872 72.139207,146.750705 C69.475697,149.65954 67.740937,153.777404 66.9348748,159.104424 L65.9886326,165.43899 C65.8134017,166.823314 65.7520717,168.181334 65.804641,169.513088 C65.8747334,171.966321 66.3697533,174.134772 67.2897157,176.018503 C68.2096779,177.902236 69.5107479,179.339108 71.1929648,180.329162 C72.8751815,181.319217 74.8640226,181.822998 77.1595476,181.840521 C79.7704883,181.875568 82.2149229,181.468162 84.4929249,180.618292 C86.7709268,179.768423 88.6195853,178.554966 90.0389556,176.977888 Z M107.754713,181.840521 C111.977778,181.928137 115.469201,180.504408 118.229088,177.569289 C120.988975,174.634172 122.763162,170.53821 123.551701,165.281283 L124.419089,159.419838 C124.611844,158.105607 124.690696,156.712542 124.65565,155.240601 C124.515465,151.332952 123.477238,148.253315 121.540936,146.001598 C119.604635,143.74988 116.936784,142.588993 113.537304,142.5189 C110.786179,142.466332 108.31546,143.07963 106.125073,144.358816 C103.934687,145.638001 102.103551,147.591798 100.631612,150.22026 C99.1596718,152.848724 98.1696321,155.862651 97.6614623,159.26213 L96.6889357,165.622981 C96.5137047,166.972259 96.4611363,168.303995 96.5312286,169.618226 C96.7064596,173.420737 97.7797328,176.390857 99.7510806,178.528674 C101.722428,180.666491 104.390279,181.77043 107.754713,181.840521 Z M116.875436,159.156992 L115.955479,165.649266 C115.447309,169.153884 114.553645,171.677171 113.274459,173.219203 C111.995273,174.761235 110.356889,175.497195 108.359256,175.427102 C105.555562,175.304441 104.109928,173.403214 104.022313,169.723364 C103.969744,168.742072 104.048596,167.384052 104.258873,165.649266 L105.178831,159.209562 C105.687001,155.634852 106.585046,153.010807 107.872993,151.337353 C109.16094,149.663897 110.856274,148.870989 112.959045,148.958604 C115.692647,149.063743 117.103235,151.070107 117.19085,154.977757 C117.19085,155.95905 117.085713,157.352115 116.875436,159.156992 Z M139.664103,170.722175 L137.797903,143.04459 L129.623421,143.04459 L134.27578,181.314831 L142.134846,181.314831 L158.825508,143.04459 L150.230474,143.04459 L139.664103,170.722175 Z M74.483785,99.6909265 L75.6140187,93.2512224 L49.8289183,93.2512224 L48.6986845,99.6909265 L57.7405545,99.6909265 L52.2208083,131.521463 L59.790746,131.521463 L65.3104923,99.6909265 L74.483785,99.6909265 Z M95.5902433,114.962224 L96.6941925,108.732797 L84.9975874,108.732797 L86.5746577,99.6909265 L100.321454,99.6909265 L101.451688,93.2512224 L80.1349537,93.2512224 L73.5112582,131.521463 L94.8542771,131.521463 L95.9845109,125.108044 L82.1588607,125.108044 L83.9199226,114.962224 L95.5902433,114.962224 Z M118.562902,123.68868 L119.220014,131.521463 L127.026512,131.521463 L122.006172,93.2512224 L115.093347,93.2512224 L96.8518995,131.521463 L105.052665,131.521463 L108.390798,123.68868 L118.562902,123.68868 Z M111.150671,117.248977 L116.959547,103.686171 L118.037211,117.248977 L111.150671,117.248977 Z M147.186729,93.2512224 L137.461461,93.2512224 L130.837766,131.521463 L138.381419,131.521463 L140.116196,121.428213 L142.29781,104.947828 L145.189107,131.521463 L150.314584,131.521463 L162.037475,105.815216 L158.725626,120.928807 L156.885712,131.521463 L164.455649,131.521463 L171.105629,93.2512224 L161.170086,93.2512224 L149.420912,120.7711 L147.186729,93.2512224 Z" id="Combined-Shape"></path>
        </g>
    </g>
</svg>